<svg xmlns="http://www.w3.org/2000/svg" viewBox="0 0 960 540" role="img" aria-labelledby="title desc">
  <title id="title">Institute for Progress logo</title>
  <desc id="desc">A stepped monogram next to the letters I F P on a violet background.</desc>
  <rect width="960" height="540" fill="#B18CFF"/>
  <g fill="none" stroke="#F9F6FF" stroke-width="44" stroke-linejoin="round" stroke-linecap="round">
    <path d="M220 120v300h300"/>
    <path d="M272 168v204h204"/>
    <path d="M324 216v108h108"/>
  </g>
  <g fill="#F9F6FF">
    <rect x="580" y="150" width="44" height="240" rx="6"/>
    <path d="M670 150h150v70H714v34h88v70h-88v106h-44z"/>
    <path d="M870 150h130c58 0 94 32 94 83 0 44-24 70-60 79l72 128h-98l-60-114h-34v114h-44zm120 116c26 0 40-12 40-32 0-21-14-31-40-31h-76v63z"/>
  </g>
</svg>
